<?xml version="1.0" encoding="UTF-8" standalone="no"?>
<!DOCTYPE svg PUBLIC "-//W3C//DTD SVG 1.1//EN" "http://www.w3.org/Graphics/SVG/1.1/DTD/svg11.dtd">
<svg version="1.1" xmlns="http://www.w3.org/2000/svg" xmlns:xlink="http://www.w3.org/1999/xlink" preserveAspectRatio="xMidYMid meet" viewBox="0 0 32 32" width="32" height="32"><defs><path d="M24.9 0C28.82 0 32 3.18 32 7.1C32 12.08 32 19.99 32 24.99C32 28.86 28.86 32 24.99 32C19.99 32 12.01 32 7.01 32C3.14 32 0 28.86 0 24.99C0 19.99 0 12.01 0 7.01C0 3.14 3.14 0 7.01 0C12.01 0 19.92 0 24.9 0Z" id="nyCE1vIfB"></path><path d="M13 5L19 5L19 27L13 27L13 5Z" id="a5bl24CEFb"></path><path d="M5 13L27 13L27 19L5 19L5 13Z" id="fhyS3CGN"></path></defs><g><g><g><use xlink:href="#nyCE1vIfB" opacity="1" fill="#2db335" fill-opacity="1"></use><g><use xlink:href="#nyCE1vIfB" opacity="1" fill-opacity="0" stroke="#2db335" stroke-width="0" stroke-opacity="1"></use></g></g><g><use xlink:href="#a5bl24CEFb" opacity="1" fill="#ffffff" fill-opacity="1"></use></g><g><use xlink:href="#fhyS3CGN" opacity="1" fill="#ffffff" fill-opacity="1"></use></g></g></g></svg>